HIERARCHY
ROOT Hips
{
	OFFSET 0.000000 0.000000 0.000000
	CHANNELS 6 Xposition Yposition Zposition Zrotation Xrotation Yrotation
	JOINT Spine
	{
		OFFSET 0.000000 -0.000000 0.070167
		CHANNELS 6 Xposition Yposition Zposition Zrotation Xrotation Yrotation
		JOINT Spine1
		{
			OFFSET 0.000000 -0.000000 0.166666
			CHANNELS 6 Xposition Yposition Zposition Zrotation Xrotation Yrotation
			JOINT Neck
			{
				OFFSET 0.000000 -0.000000 0.183780
				CHANNELS 6 Xposition Yposition Zposition Zrotation Xrotation Yrotation
				JOINT Head
				{
					OFFSET 0.000000 -0.017114 0.132633
					CHANNELS 6 Xposition Yposition Zposition Zrotation Xrotation Yrotation
					End Site
					{
						OFFSET 0.000000 -0.000000 0.171140
					}
				}
			}
			JOINT LeftShoulder
			{
				OFFSET 0.034466 0.004091 0.144174
				CHANNELS 6 Xposition Yposition Zposition Zrotation Xrotation Yrotation
				JOINT LeftArm
				{
					OFFSET 0.121044 0.000000 0.000000
					CHANNELS 6 Xposition Yposition Zposition Zrotation Xrotation Yrotation
					JOINT LeftForeArm
					{
						OFFSET 0.257070 0.000000 0.000000
						CHANNELS 6 Xposition Yposition Zposition Zrotation Xrotation Yrotation
						JOINT LeftHand
						{
							OFFSET 0.224060 0.000000 0.000000
							CHANNELS 6 Xposition Yposition Zposition Zrotation Xrotation Yrotation
							End Site
							{
								OFFSET 0.128355 0.000000 0.000000
							}
						}
					}
				}
			}
			JOINT RightShoulder
			{
				OFFSET -0.033538 0.004091 0.144174
				CHANNELS 6 Xposition Yposition Zposition Zrotation Xrotation Yrotation
				JOINT RightArm
				{
					OFFSET -0.121044 0.000000 0.000000
					CHANNELS 6 Xposition Yposition Zposition Zrotation Xrotation Yrotation
					JOINT RightForeArm
					{
						OFFSET -0.257070 0.000000 0.000000
						CHANNELS 6 Xposition Yposition Zposition Zrotation Xrotation Yrotation
						JOINT RightHand
						{
							OFFSET -0.224060 0.000000 0.000000
							CHANNELS 6 Xposition Yposition Zposition Zrotation Xrotation Yrotation
							End Site
							{
								OFFSET -0.128355 0.000000 0.000000
							}
						}
					}
				}
			}
		}
	}
	JOINT LeftUpLeg
	{
		OFFSET 0.085570 0.000000 0.000000
		CHANNELS 6 Xposition Yposition Zposition Zrotation Xrotation Yrotation
		JOINT LeftLeg
		{
			OFFSET 0.000000 0.000000 -0.385526
			CHANNELS 6 Xposition Yposition Zposition Zrotation Xrotation Yrotation
			JOINT LeftFoot
			{
				OFFSET 0.000000 0.000000 -0.365921
				CHANNELS 6 Xposition Yposition Zposition Zrotation Xrotation Yrotation
				JOINT LeftToeBase
				{
					OFFSET 0.000000 -0.128355 -0.055620
					CHANNELS 6 Xposition Yposition Zposition Zrotation Xrotation Yrotation
					End Site
					{
						OFFSET 0.000000 -0.034228 0.000000
					}
				}
			}
		}
	}
	JOINT RightUpLeg
	{
		OFFSET -0.085570 0.000000 0.000000
		CHANNELS 6 Xposition Yposition Zposition Zrotation Xrotation Yrotation
		JOINT RightLeg
		{
			OFFSET 0.000000 0.000000 -0.385526
			CHANNELS 6 Xposition Yposition Zposition Zrotation Xrotation Yrotation
			JOINT RightFoot
			{
				OFFSET 0.000000 0.000000 -0.365921
				CHANNELS 6 Xposition Yposition Zposition Zrotation Xrotation Yrotation
				JOINT RightToeBase
				{
					OFFSET 0.000000 -0.128355 -0.055620
					CHANNELS 6 Xposition Yposition Zposition Zrotation Xrotation Yrotation
					End Site
					{
						OFFSET 0.000000 -0.034228 0.000000
					}
				}
			}
		}
	}
}
MOTION
Frames: 4
Frame Time: 0.016667
0.176827 -0.082653 1.042477 -6.615629 -0.654711 -2.512556 -0.000000 -0.000000 0.070167 2.282256 10.427289 -1.655560 -0.000000 -0.000000 0.166666 0.745990 -10.727936 -0.204699 0.000000 -0.000000 0.183780 0.241757 -3.324561 29.843494 -0.000000 -0.017114 0.132633 -4.534958 16.606329 -21.620800 0.034466 0.004091 0.144174 -22.906889 -11.745439 -5.482656 0.121044 -0.000000 -0.000000 -53.735308 -7.814572 11.925314 0.257070 0.000000 0.000000 -74.926977 16.356648 -71.795117 0.224060 -0.000000 -0.000000 -39.682948 -41.003886 -27.163958 -0.033538 0.004091 0.144174 8.952729 -4.976440 19.629919 -0.121044 0.000000 -0.000000 66.736959 -41.863705 -15.728744 -0.257070 -0.000000 0.000000 94.454249 15.402384 53.345741 -0.224060 -0.000000 0.000000 47.757243 -6.471437 -2.557446 0.085570 0.000000 -0.000000 7.645776 4.413552 -2.288044 0.000000 0.000000 -0.385526 15.053834 0.181868 -0.961238 0.000000 0.000000 -0.365921 8.760708 40.235073 8.071780 -0.000000 -0.128355 -0.055620 -0.000000 -0.000001 -0.000001 -0.085570 0.000000 -0.000000 -0.218959 0.755721 6.800704 -0.000000 0.000000 -0.385526 18.306437 4.898516 -4.255462 0.000000 0.000000 -0.365921 -22.383201 36.031918 1.263407 0.000000 -0.128355 -0.055620 0.000001 0.000003 -0.000000 
0.175978 -0.082346 1.054889 -6.362348 -0.573778 -2.604238 -0.000000 -0.000000 0.070167 2.070449 10.364459 -1.566204 0.000000 -0.000000 0.166666 0.706919 -10.833958 0.095228 -0.000000 -0.000000 0.183780 0.767673 -3.399947 31.343130 0.000000 -0.017114 0.132633 -4.080158 17.203297 -24.680858 0.034466 0.004091 0.144174 -22.838069 -11.084542 -5.457839 0.121044 -0.000000 0.000000 -53.842948 -7.391000 12.238153 0.257070 0.000000 0.000000 -74.190683 16.372749 -71.767858 0.224060 0.000000 -0.000000 -39.171931 -40.546154 -25.774050 -0.033538 0.004091 0.144174 8.534747 -4.768368 19.683801 -0.121044 0.000000 -0.000000 67.077976 -41.677937 -15.268656 -0.257070 0.000000 -0.000000 92.358679 16.429933 53.772020 -0.224060 -0.000000 -0.000000 50.309937 -5.186166 -1.980848 0.085570 0.000000 0.000000 7.133003 3.761358 -2.286075 0.000000 0.000000 -0.385526 12.961680 1.893330 -1.163218 0.000000 0.000000 -0.365921 10.648221 40.316817 10.212965 0.000000 -0.128355 -0.055620 0.000004 -0.000001 0.000002 -0.085570 0.000000 -0.000000 -0.583763 0.392793 6.788338 -0.000000 0.000000 -0.385526 18.322157 5.448770 -4.355149 0.000000 0.000000 -0.365921 -22.647726 35.408793 1.244154 -0.000000 -0.128355 -0.055620 0.000001 0.000002 0.000001 
0.174894 -0.081850 1.065639 -6.038689 -0.496500 -2.650111 0.000000 -0.000000 0.070167 1.836398 9.923202 -1.171607 0.000000 -0.000000 0.166666 0.664199 -11.027167 0.394638 -0.000000 -0.000000 0.183780 -2.480685 2.209119 27.109586 0.000000 -0.017114 0.132633 -6.623222 9.862881 -19.643785 0.034466 0.004091 0.144174 -23.832475 -9.526662 -5.827779 0.121044 -0.000000 0.000000 -53.134145 -7.908527 12.518040 0.257070 0.000000 0.000000 -73.954440 16.533945 -70.892419 0.224060 -0.000000 0.000000 -38.569395 -39.545262 -24.428706 -0.033538 0.004091 0.144174 8.861957 -3.620000 18.544667 -0.121044 -0.000000 0.000000 65.582404 -39.115069 -15.482692 -0.257070 0.000000 -0.000000 92.358672 16.429933 53.772017 -0.224060 -0.000000 0.000000 50.309937 -5.186166 -1.980848 0.085570 0.000000 0.000000 6.814306 3.208002 -2.379317 0.000000 0.000000 -0.385526 11.519721 3.273898 -1.345944 -0.000000 0.000000 -0.365921 10.205433 39.895743 11.879077 -0.000000 -0.128355 -0.055620 -0.000001 0.000005 -0.000001 -0.085570 0.000000 0.000000 -1.024704 0.033240 6.683107 -0.000000 0.000000 -0.385526 18.374148 5.974042 -4.386605 0.000000 0.000000 -0.365921 -22.443114 34.520285 1.112065 0.000000 -0.128355 -0.055620 0.000002 -0.000002 -0.000001 
0.173822 -0.081489 1.074903 -5.657805 -0.505554 -2.742023 0.000000 -0.000000 0.070167 1.619908 9.445340 -0.687228 0.000000 -0.000000 0.166666 0.647061 -10.701625 0.813354 0.000000 -0.000000 0.183780 -4.465376 2.234940 34.679268 0.000000 -0.017114 0.132633 -1.902072 10.706098 -35.584794 0.034466 0.004091 0.144174 -24.758030 -8.384298 -6.703196 0.121044 0.000000 -0.000000 -52.677482 -9.000684 12.987142 0.257070 0.000000 -0.000000 -74.339881 16.583421 -69.542616 0.224060 -0.000000 -0.000000 -37.732359 -38.910806 -22.870962 -0.033538 0.004091 0.144174 8.815666 -3.175244 17.165452 -0.121044 0.000000 -0.000000 65.010335 -36.847627 -14.475374 -0.257070 -0.000000 0.000000 92.358679 16.429931 53.772020 -0.224060 -0.000000 0.000000 50.309937 -5.186168 -1.980847 0.085570 -0.000000 -0.000000 6.662558 2.895774 -2.464976 -0.000000 0.000000 -0.385526 10.297518 4.392843 -1.547191 0.000000 0.000000 -0.365921 8.620692 38.517906 13.913301 -0.000000 -0.128355 -0.055620 0.000001 -0.000000 -0.000001 -0.085570 -0.000000 -0.000000 -1.585365 -0.189682 6.656961 0.000000 0.000000 -0.385526 18.534352 6.414648 -4.389359 -0.000000 0.000000 -0.365921 -21.816910 33.375122 0.799401 0.000000 -0.128355 -0.055620 0.000001 -0.000002 -0.000000 
